HIERARCHY
ROOT Hips
{
	OFFSET 0.00000 0.00000 0.00000
	CHANNELS 6 Xposition Yposition Zposition Zrotation Yrotation Xrotation 
	JOINT LHipJoint
	{
		OFFSET 0 0 0
		CHANNELS 3 Zrotation Yrotation Xrotation
		JOINT LeftHip
		{
			OFFSET 1.29432 -1.88279 0.59910
			CHANNELS 3 Zrotation Yrotation Xrotation
			JOINT LeftKnee
			{
				OFFSET 2.63039 -7.22694 0.00000
				CHANNELS 3 Zrotation Yrotation Xrotation
				JOINT LeftAnkle
				{
					OFFSET 2.70674 -7.43672 0.00000
					CHANNELS 3 Zrotation Yrotation Xrotation
					JOINT LeftToe
					{
						OFFSET 0.15066 -0.41394 2.09027
						CHANNELS 3 Zrotation Yrotation Xrotation
						End Site
						{
							OFFSET 0.00000 -0.00000 1.07518
						}
					}
				}
			}
		}
	}
	JOINT RHipJoint
	{
		OFFSET 0 0 0
		CHANNELS 3 Zrotation Yrotation Xrotation
		JOINT RightHip
		{
			OFFSET -1.37068 -1.88279 0.59910
			CHANNELS 3 Zrotation Yrotation Xrotation
			JOINT RightKnee
			{
				OFFSET -2.57023 -7.06166 0.00000
				CHANNELS 3 Zrotation Yrotation Xrotation
				JOINT RightAnkle
				{
					OFFSET -2.76461 -7.59570 0.00000
					CHANNELS 3 Zrotation Yrotation Xrotation
					JOINT RightToe
					{
						OFFSET -0.24175 -0.64785 2.19719
						CHANNELS 3 Zrotation Yrotation Xrotation
						End Site
						{
							OFFSET -0.00000 -0.00000 1.14803
						}
					}
				}
			}
		}
	}
	JOINT lowerback
	{
		OFFSET 0 0 0
		CHANNELS 3 Zrotation Yrotation Xrotation
		JOINT Chest
		{
			OFFSET -0.03138 2.03983 -0.23106
			CHANNELS 3 Zrotation Yrotation Xrotation
			JOINT Chest2
			{
				OFFSET -0.00325 2.06238 -0.06878
				CHANNELS 3 Zrotation Yrotation Xrotation
				JOINT lowerneck
				{
					OFFSET 0 0 0
					CHANNELS 3 Zrotation Yrotation Xrotation
					JOINT Neck
					{
						OFFSET -0.00002 1.75318 0.18090
						CHANNELS 3 Zrotation Yrotation Xrotation
						JOINT Head
						{
							OFFSET 0.08806 1.75856 -0.25387
							CHANNELS 3 Zrotation Yrotation Xrotation
							End Site
							{
								OFFSET 0.02554 1.78597 -0.10684
							}
						}
					}
				}
				JOINT LeftCollar
				{
					OFFSET 0 0 0
					CHANNELS 3 Zrotation Yrotation Xrotation
					JOINT LeftShoulder
					{
						OFFSET 3.09657 1.33597 -0.04414
CHANNELS 3 Zrotation Xrotation Yrotation
						JOINT LeftElbow
						{
OFFSET 0 -5.342980 -0.000000
CHANNELS 3 Zrotation Xrotation Yrotation
							JOINT LeftWrist
							{
OFFSET 0 -3.672620 -0.000000
CHANNELS 3 Zrotation Xrotation Yrotation
								JOINT lhand
								{
									OFFSET 0 0 0
CHANNELS 3 Zrotation Xrotation Yrotation
									JOINT LFingers
									{
OFFSET 0 -0.599300 -0.000000
CHANNELS 3 Zrotation Xrotation Yrotation
										End Site
										{
OFFSET 0 -0.483170 -0.000000
										}
									}
								}
								JOINT LThumb
								{
OFFSET 0 0.000000 0.000000
CHANNELS 3 Zrotation Xrotation Yrotation
									End Site
									{
OFFSET 0 -0.490550 0.490550
									}
								}
							}
						}
					}
				}
				JOINT RightCollar
				{
					OFFSET 0 0 0
					CHANNELS 3 Zrotation Yrotation Xrotation
					JOINT RightShoulder
					{
						OFFSET -3.16460 1.32273 -0.23382
CHANNELS 3 Zrotation Xrotation Yrotation
						JOINT RightElbow
						{
OFFSET 0 -5.549670 0.033480
CHANNELS 3 Zrotation Xrotation Yrotation
							JOINT RightWrist
							{
OFFSET 0 -3.694010 0.000000
CHANNELS 3 Zrotation Xrotation Yrotation
								JOINT rhand
								{
									OFFSET 0 0 0
CHANNELS 3 Zrotation Xrotation Yrotation
									JOINT RFingers
									{
OFFSET 0 -0.638110 0.000000
CHANNELS 3 Zrotation Xrotation Yrotation
										End Site
										{
OFFSET 0 -0.514460 0.000000
										}
									}
								}
								JOINT RThumb
								{
OFFSET 0 0.000000 0.000000
CHANNELS 3 Zrotation Xrotation Yrotation
									End Site
									{
OFFSET 0 -0.522320 0.522320
									}
								}
							}
						}
					}
				}
			}
		}
	}
}
MOTION
Frames: 12
Frame Time: 0.008333333333333333
7.363500 10.524700 11.741700 179.109000 -4.243900 168.806000 0.000000 0.000000 0.000000 9.598800 4.459000 -76.002100 17.010300 19.784300 81.228500 0.543900 -1.324600 14.473200 0.121700 -2.248900 -6.194000 0.000000 0.000000 0.000000 -11.626900 -0.603000 -79.682100 -19.740300 -19.998400 89.240600 -0.221800 -5.656200 8.690300 -0.479000 4.438400 -12.313300 3.039100 4.726500 40.271600 0.593000 -0.145100 17.813800 -0.905500 -2.789200 0.480800 -5.298800 -3.179700 -15.274400 5.967600 -4.410800 -7.739300 2.623400 -2.496800 0.379300 -0.000000 0.000000 0.000000 33.867400 -60.336700 -50.840600 45.812800 -51.160500 22.870100 20.732700 29.624700 -12.537400 0.000000 0.000000 0.000000 -7.125000 0.000000 0.000000 -5.953800 43.276200 -0.254200 -0.000000 0.000000 0.000000 -36.570900 -60.509000 45.144400 -50.170600 -53.064100 -26.310400 -12.029200 5.969700 -8.351900 0.000000 0.000000 0.000000 7.125000 0.000000 -0.000000 10.709700 21.498700 6.145600
7.363948 10.525955 11.742328 179.087484 -4.234308 168.831102 0.000000 0.000000 0.000000 9.546534 4.515658 -76.027112 17.002859 19.783224 81.206446 0.545514 -1.551682 14.600054 0.166076 -2.622379 -7.229271 0.000000 0.000000 0.000000 -11.637120 -0.612772 -79.721725 -19.743079 -19.998400 89.248848 -0.312615 -3.190034 9.980265 -1.839968 8.402249 -24.007977 3.020363 4.730982 40.227941 0.577401 -0.155141 17.839081 -0.911417 -2.796013 0.520873 -5.338335 -3.166253 -15.390765 5.990909 -4.381216 -7.641761 2.638103 -2.477167 0.431028 0.000000 0.000000 0.000000 33.653765 -60.373636 -50.814153 45.602303 -51.060093 22.706311 20.532871 29.861195 -12.467025 0.000000 0.000000 0.000000 -7.125000 0.000000 0.000000 -6.120996 43.180365 -0.275985 0.000000 0.000000 0.000000 -36.851682 -60.841420 45.195769 -49.675197 -52.863465 -25.915046 -11.255346 5.592007 -9.197832 0.000000 0.000000 0.000000 7.125000 0.000000 0.000000 11.217833 20.682173 6.660994
7.363921 10.525624 11.741131 179.101653 -4.180308 168.882372 0.000000 0.000000 0.000000 9.579515 4.582864 -76.071394 17.007154 19.783893 81.219125 0.546731 -1.649983 14.662359 0.177147 -2.711176 -7.475678 0.000000 0.000000 0.000000 -11.629656 -0.553236 -79.794814 -19.749030 -19.998479 89.266215 -0.239519 -5.120434 8.942889 -0.743544 5.118105 -14.348747 3.024703 4.729835 40.211402 0.558313 -0.144643 17.818448 -0.936365 -2.785143 0.502821 -5.314511 -3.147492 -15.458837 5.937139 -4.357975 -7.585220 2.615614 -2.464908 0.457221 0.000000 0.000000 0.000000 33.578190 -60.385830 -50.841709 45.476339 -50.999652 22.608339 20.701941 30.012206 -12.498867 0.000000 0.000000 0.000000 -7.125000 0.000000 0.000000 -5.974565 43.232263 -0.261689 0.000000 0.000000 0.000000 -36.361283 -60.493932 45.165857 -50.233200 -53.088347 -26.360736 -10.276584 6.185725 -9.524198 0.000000 0.000000 0.000000 7.125000 0.000000 0.000000 11.893841 20.395600 7.158071
7.363555 10.524535 11.739904 179.069457 -4.185116 168.892242 0.000000 0.000000 0.000000 9.589838 4.520857 -76.061171 17.012982 19.784721 81.236269 0.545759 -1.559793 14.606541 0.163531 -2.604302 -7.179021 0.000000 0.000000 0.000000 -11.671734 -0.560015 -79.815113 -19.752293 -19.998500 89.275809 -0.199153 -6.002486 8.401741 -0.315015 3.588059 -9.922606 2.996063 4.733192 40.261835 0.550973 -0.133602 17.774930 -0.929462 -2.776446 0.438156 -5.264421 -3.179474 -15.429318 5.906473 -4.407614 -7.581260 2.593235 -2.490638 0.454157 0.000000 0.000000 0.000000 33.400321 -60.382936 -51.006350 45.395055 -50.960493 22.545159 20.905648 30.089385 -12.536741 0.000000 0.000000 0.000000 -7.125000 0.000000 0.000000 -5.797747 43.294344 -0.244958 0.000000 0.000000 0.000000 -36.403790 -60.448910 45.179873 -50.149378 -53.055331 -26.293601 -10.500837 6.324728 -9.155249 0.000000 0.000000 0.000000 7.125000 0.000000 0.000000 11.756040 20.754056 6.974650
7.363459 10.524569 11.739852 179.013740 -4.225494 168.862873 0.000000 0.000000 0.000000 9.551108 4.419233 -76.014373 17.013476 19.784766 81.237747 0.539516 -1.391688 14.448584 0.143281 -2.437707 -6.717003 0.000000 0.000000 0.000000 -11.732836 -0.608230 -79.777115 -19.751694 -19.998500 89.273981 -0.199765 -6.030601 8.417508 -0.330400 3.682458 -10.186184 2.956441 4.739119 40.342974 0.550755 -0.133340 17.745033 -0.906096 -2.778236 0.379295 -5.261900 -3.218226 -15.369871 5.947467 -4.461013 -7.624295 2.604517 -2.518284 0.434461 0.000000 0.000000 0.000000 33.243050 -60.386150 -51.125946 45.384874 -50.955632 22.537251 20.952943 30.081356 -12.460149 0.000000 0.000000 0.000000 -7.125000 0.000000 0.000000 -5.741585 43.218565 -0.253288 0.000000 0.000000 0.000000 -36.664705 -60.576897 45.202471 -49.818328 -52.921646 -26.029221 -11.103575 6.132036 -8.860767 0.000000 0.000000 0.000000 7.125000 0.000000 0.000000 11.343999 21.024239 6.648751
7.363500 10.525768 11.740293 178.944990 -4.236086 168.867606 0.000000 0.000000 0.000000 9.474874 4.386964 -76.002088 17.009602 19.784214 81.226350 0.535404 -1.063180 14.250241 0.091584 -1.890431 -5.204649 0.000000 0.000000 0.000000 -11.805178 -0.616042 -79.764457 -19.746310 -19.998452 89.258166 -0.211938 -5.969191 8.603812 -0.369303 3.903248 -10.804592 2.896415 4.752763 40.356040 0.535868 -0.138933 17.742941 -0.888734 -2.784340 0.370440 -5.286099 -3.214605 -15.327760 5.990812 -4.459782 -7.724329 2.625175 -2.521756 0.396326 0.000000 0.000000 0.000000 33.261785 -60.406935 -51.081668 45.424531 -50.974785 22.568069 20.863199 30.013732 -12.354698 0.000000 0.000000 0.000000 -7.125000 0.000000 0.000000 -5.803744 43.097573 -0.273521 0.000000 0.000000 0.000000 -36.780038 -60.689742 45.225764 -49.665915 -52.859844 -25.907543 -11.349848 5.941831 -9.003944 0.000000 0.000000 0.000000 7.125000 0.000000 0.000000 11.161171 20.871800 6.576114
7.363311 10.527155 11.740689 178.877125 -4.218160 168.917117 0.000000 0.000000 0.000000 9.390591 4.423075 -76.038119 17.004970 19.783573 81.212725 0.539507 -0.918403 14.238115 0.069152 -1.660628 -4.569479 0.000000 0.000000 0.000000 -11.883850 -0.580252 -79.796606 -19.738947 -19.998362 89.236707 -0.218352 -5.881295 8.689356 -0.380072 3.957880 -10.958275 2.808195 4.778487 40.292883 0.527437 -0.138118 17.754465 -0.854499 -2.787865 0.398082 -5.293374 -3.193724 -15.296556 5.977115 -4.440490 -7.832510 2.624432 -2.518141 0.353857 0.000000 0.000000 0.000000 33.379992 -60.409752 -50.970851 45.498999 -51.010616 22.625949 20.799985 29.964798 -12.393585 0.000000 0.000000 0.000000 -7.125000 0.000000 0.000000 -5.867589 43.131789 -0.271512 0.000000 0.000000 0.000000 -36.790672 -60.742312 45.239591 -49.664178 -52.859150 -25.906152 -11.265326 5.878896 -9.440102 0.000000 0.000000 0.000000 7.125000 0.000000 0.000000 11.198796 20.439496 6.710639
7.363055 10.527625 11.741000 178.842958 -4.220257 168.957204 0.000000 0.000000 0.000000 9.333232 4.464454 -76.082564 17.003154 19.783310 81.207379 0.544059 -1.193851 14.416585 0.129711 -2.299909 -6.336305 0.000000 0.000000 0.000000 -11.936975 -0.568680 -79.827876 -19.736032 -19.998328 89.228287 -0.187143 -6.174486 8.270939 -0.293512 2.972870 -8.234890 2.728636 4.804875 40.225428 0.558178 -0.131734 17.767494 -0.785484 -2.790834 0.429443 -5.301047 -3.203158 -15.255721 5.947170 -4.457636 -7.898922 2.615822 -2.530247 0.325220 0.000000 0.000000 0.000000 33.397889 -60.384462 -50.931113 45.570595 -51.045006 22.681592 20.817827 30.049908 -12.710091 0.000000 0.000000 0.000000 -7.125000 0.000000 0.000000 -5.908916 43.467468 -0.223842 0.000000 0.000000 0.000000 -36.871225 -60.769552 45.217624 -49.642156 -52.850121 -25.888618 -11.212322 5.921524 -9.665556 0.000000 0.000000 0.000000 7.125000 0.000000 0.000000 11.225042 20.216459 6.784415
7.363355 10.526590 11.740948 178.870788 -4.250217 168.956466 0.000000 0.000000 0.000000 9.334378 4.485797 -76.106772 17.006466 19.783755 81.217064 0.539001 -1.451265 14.469402 0.188729 -2.797794 -7.716288 0.000000 0.000000 0.000000 -11.919318 -0.614528 -79.838155 -19.740849 -19.998417 89.242344 -0.103747 -7.394789 7.258809 -0.000103 0.010730 -0.029587 2.726107 4.805547 40.193357 0.602206 -0.138817 17.791755 -0.737540 -2.799873 0.466091 -5.355351 -3.225102 -15.202854 5.978719 -4.482617 -7.965699 2.636352 -2.544120 0.298262 0.000000 0.000000 0.000000 33.299598 -60.398630 -50.927796 45.550546 -51.035320 22.665973 20.771071 30.305603 -13.243875 0.000000 0.000000 0.000000 -7.125000 0.000000 0.000000 -6.050073 44.024935 -0.145894 0.000000 0.000000 0.000000 -36.980262 -60.814988 45.165818 -49.604395 -52.834660 -25.858523 -11.246984 6.046786 -9.240304 0.000000 0.000000 0.000000 7.125000 0.000000 0.000000 11.222256 20.639628 6.673027
7.364148 10.524997 11.740584 178.944943 -4.262971 168.920962 0.000000 0.000000 0.000000 9.410650 4.480687 -76.088180 17.011593 19.784500 81.232286 0.544362 -1.631535 14.623662 0.178831 -2.723550 -7.509938 0.000000 0.000000 0.000000 -11.825160 -0.664847 -79.821978 -19.746098 -19.998500 89.257589 -0.102085 -7.368504 7.216726 -0.002243 -0.074429 0.204548 2.822837 4.769409 40.192757 0.595778 -0.165639 17.823054 -0.787052 -2.811327 0.504789 -5.389145 -3.206476 -15.123151 6.014556 -4.461128 -8.089577 2.658249 -2.538024 0.245043 0.000000 0.000000 0.000000 33.336850 -60.467060 -50.872427 45.436183 -50.980322 22.577098 20.664482 30.496211 -13.527116 0.000000 0.000000 0.000000 -7.125000 0.000000 0.000000 -6.201607 44.310803 -0.105809 0.000000 0.000000 0.000000 -36.964888 -60.882237 45.161271 -49.585739 -52.827046 -25.843716 -11.084742 6.203826 -8.585087 0.000000 0.000000 0.000000 7.125000 0.000000 0.000000 11.373204 21.300142 6.593378
7.364775 10.523653 11.739060 178.983492 -4.258668 168.868068 0.000000 0.000000 0.000000 9.496445 4.420263 -76.004088 17.011504 19.784500 81.232107 0.545168 -1.535072 14.587802 0.160901 -2.584055 -7.122742 0.000000 0.000000 0.000000 -11.751289 -0.685108 -79.770609 -19.748698 -19.998500 89.265298 -0.121539 -7.081715 7.434484 -0.023759 0.971690 -2.671047 2.878330 4.747266 40.238030 0.567987 -0.175321 17.813282 -0.840125 -2.811686 0.482376 -5.317694 -3.164251 -15.028213 5.965518 -4.418276 -8.141663 2.632699 -2.520005 0.206315 0.000000 0.000000 0.000000 33.452767 -60.446889 -50.872786 45.417626 -50.971447 22.562664 20.695680 30.387646 -13.082007 0.000000 0.000000 0.000000 -7.125000 0.000000 0.000000 -6.087752 43.845881 -0.174032 0.000000 0.000000 0.000000 -36.841621 -60.830330 45.270912 -49.625543 -52.843362 -25.875362 -10.941213 6.236906 -8.303319 0.000000 0.000000 0.000000 7.125000 0.000000 0.000000 11.492437 21.586213 6.589165
7.364800 10.523772 11.738139 178.907471 -4.282879 168.884090 0.000000 0.000000 0.000000 9.451560 4.337270 -75.963586 17.007107 19.783897 81.219092 0.544339 -1.402429 14.514815 0.139698 -2.407777 -6.633983 0.000000 0.000000 0.000000 -11.830150 -0.699338 -79.777387 -19.750437 -19.998500 89.270166 -0.143147 -6.748237 7.680326 -0.108935 2.084054 -5.739431 2.801076 4.740284 40.286662 0.527791 -0.186210 17.751221 -0.834706 -2.811442 0.394753 -5.272345 -3.130813 -14.985046 5.927592 -4.374045 -8.080729 2.613954 -2.494663 0.214534 0.000000 0.000000 0.000000 33.594268 -60.293281 -50.884516 45.590393 -51.054401 22.697001 20.745054 30.190955 -12.796521 0.000000 0.000000 0.000000 -7.125000 0.000000 0.000000 -5.989920 43.550662 -0.214948 0.000000 0.000000 0.000000 -36.616531 -60.730441 45.464802 -49.683352 -52.867000 -25.921481 -10.890461 6.076853 -8.310046 0.000000 0.000000 0.000000 7.125000 0.000000 0.000000 11.528370 21.581205 6.612000
